<svg data-v-cb7b064e="" version="1.1" viewBox="0 0 310 63" class="logo svg-icon svg-fill"><path fill="#fff" stroke="none" pid="0" d="M108.4 21.1a10.8 10.8 0 0 0-4.9-3.7 16.6 16.6 0 0 0-12.6.2 15.7 15.7 0 0 0-5.2 3.6 16.1 16.1 0 0 0-3.3 5.4 18.9 18.9 0 0 0-1.2 6.7 20.5 20.5 0 0 0 1.1 7 15.7 15.7 0 0 0 3.2 5.4 14.6 14.6 0 0 0 5 3.5 16.7 16.7 0 0 0 6.6 1.3 14.8 14.8 0 0 0 6.8-1.5 13.2 13.2 0 0 0 4.7-3.9l6.8 4.7a21.6 21.6 0 0 1-7.7 6A24.7 24.7 0 0 1 97.3 58a27.8 27.8 0 0 1-10.2-1.8 23.5 23.5 0 0 1-8-5.1 23.1 23.1 0 0 1-5.2-7.8 25.8 25.8 0 0 1-1.9-10 25 25 0 0 1 2-10.1 22.5 22.5 0 0 1 5.4-7.7 24.1 24.1 0 0 1 8.1-4.9A29.4 29.4 0 0 1 97.7 9a27.9 27.9 0 0 1 4.7.4 24.5 24.5 0 0 1 4.7 1.3 23.1 23.1 0 0 1 4.3 2.2 13.7 13.7 0 0 1 3.4 3.2zM120.5 7h8v49.8h-8zM158.2 52.8h-.2a8.9 8.9 0 0 1-3.9 3.5 13.3 13.3 0 0 1-6.1 1.4 17.7 17.7 0 0 1-4-.5 12.1 12.1 0 0 1-3.9-1.6 9.6 9.6 0 0 1-2.9-3A8.6 8.6 0 0 1 136 48a7.8 7.8 0 0 1 2-5.7 13.2 13.2 0 0 1 5.2-3.2 30 30 0 0 1 7.1-1.5q3.9-.4 7.7-.4v-.8a4.9 4.9 0 0 0-2.2-4.4 9.3 9.3 0 0 0-5.2-1.4 11.8 11.8 0 0 0-4.9 1.1 13.1 13.1 0 0 0-3.9 2.6l-4.1-4.8a18.2 18.2 0 0 1 6.3-3.8 21.8 21.8 0 0 1 7.3-1.3 18.1 18.1 0 0 1 7.1 1.2 11.5 11.5 0 0 1 4.4 3.1A11 11 0 0 1 165 33a18.3 18.3 0 0 1 .6 4.7v19.1h-7.5zm-.1-10.4h-1.8l-4.1.2a18 18 0 0 0-3.9.7 8.5 8.5 0 0 0-3 1.6 3.5 3.5 0 0 0-1.2 2.8 3.3 3.3 0 0 0 .5 1.9 3.8 3.8 0 0 0 1.3 1.2 5.9 5.9 0 0 0 1.8.7l2 .2q4.1 0 6.3-2.2a8.1 8.1 0 0 0 2.1-5.9zM174.1 14.4a4.5 4.5 0 0 1 1.4-3.3 5 5 0 0 1 3.6-1.4 5.4 5.4 0 0 1 3.7 1.4 4.6 4.6 0 0 1 0 6.8 5.4 5.4 0 0 1-3.7 1.4 5 5 0 0 1-3.6-1.4 4.5 4.5 0 0 1-1.4-3.5zm1.1 10.7h8v31.7h-8zM231.3 24.3a12.2 12.2 0 0 1 5.4 1.1 10.6 10.6 0 0 1 3.7 2.9 11.5 11.5 0 0 1 2.1 4.1 17 17 0 0 1 .7 4.7v19.7h-8V39.3a22.1 22.1 0 0 0-.2-2.9 7.8 7.8 0 0 0-.9-2.7 5.7 5.7 0 0 0-1.8-2 5.5 5.5 0 0 0-3.1-.8 6.2 6.2 0 0 0-3.2.8 7 7 0 0 0-2.2 2 8.7 8.7 0 0 0-1.3 2.8 12.2 12.2 0 0 0-.4 3.1v17.2h-8V37.7a8 8 0 0 0-1.4-4.9 5.2 5.2 0 0 0-4.5-1.9 6.3 6.3 0 0 0-3.1.8 6.6 6.6 0 0 0-2.2 1.9 8.8 8.8 0 0 0-1.3 2.7 11.5 11.5 0 0 0-.4 3.1v17.4h-8V25.2h7.6v5.1h.1a9.3 9.3 0 0 1 1.4-2.2 11.1 11.1 0 0 1 2.1-1.9 10.3 10.3 0 0 1 2.8-1.4 12 12 0 0 1 3.5-.5 10.5 10.5 0 0 1 10 6 11.4 11.4 0 0 1 4.3-4.4 12.3 12.3 0 0 1 6.3-1.6zM283.1 41.4v1.1a8.5 8.5 0 0 1-.1 1.1h-24.3a7.7 7.7 0 0 0 .9 3.1 8 8 0 0 0 2 2.4 10.2 10.2 0 0 0 2.9 1.6 9.6 9.6 0 0 0 3.3.6 10.8 10.8 0 0 0 5.1-1.1 9.5 9.5 0 0 0 3.4-3l5.3 4.2q-4.7 6.3-13.8 6.3a19.9 19.9 0 0 1-6.9-1.2 16.3 16.3 0 0 1-5.4-3.3 14.7 14.7 0 0 1-3.6-5.2 17.6 17.6 0 0 1-1.3-7 17.9 17.9 0 0 1 1.3-7 15.8 15.8 0 0 1 3.6-5.3 16 16 0 0 1 5.4-3.4 18.2 18.2 0 0 1 6.7-1.2 17.2 17.2 0 0 1 6.2 1.1 13.4 13.4 0 0 1 4.9 3.2 15 15 0 0 1 3.2 5.3 21.7 21.7 0 0 1 1.2 7.7zm-8-3.6a9.6 9.6 0 0 0-.4-2.9 6.6 6.6 0 0 0-1.4-2.4 6.7 6.7 0 0 0-2.4-1.7 8.4 8.4 0 0 0-3.4-.6 9.1 9.1 0 0 0-6.1 2.1 7.8 7.8 0 0 0-2.8 5.5zM290.9 25.2h7.7v5.3h.1a11.6 11.6 0 0 1 3.7-4.5 9.4 9.4 0 0 1 5.6-1.7h1l.9.2v7.2l-1.4-.3h-1a8.6 8.6 0 0 0-4.4 1 8 8 0 0 0-2.6 2.4 8.4 8.4 0 0 0-1.3 2.8 10.8 10.8 0 0 0-.3 2.3v16.9h-8z"></path><path fill="#56aeff" stroke="none" pid="1" d="M51.5 19.4a5.2 5.2 0 0 0-3.8-1.8h-.2a7.7 7.7 0 0 0-2.2.4l.3-4a5.8 5.8 0 0 0-1.4-4.6 5.5 5.5 0 0 0-3.9-1.8 7.1 7.1 0 0 0-2.4.4V6.2a5.8 5.8 0 0 0-9.7-4.7 6.2 6.2 0 0 0-1.9 4.1l-.8 18.1-1.2-.6a15.7 15.7 0 0 0-4-1.4h-.1a13.8 13.8 0 0 0-8.7 1.2 17.2 17.2 0 0 0-6.2 4.4 7 7 0 0 0-.5 8.1 4.8 4.8 0 0 0 .8.9 6.3 6.3 0 0 0-4 1.8 6.6 6.6 0 0 0-.4 7.9c.9 1.1 3.3 3.7 7.3 7.9 5.6 5.8 13.5 9 22.4 9a20.7 20.7 0 0 0 20.6-17.2l.6-4.4V41c0-1 .8-16.5.8-17.3a5.3 5.3 0 0 0-1.4-4.3zm-1.7 4.1c0 .1-.8 15.5-.8 17.5l-.6 4.3c-1.1 5.6-7 14.5-17.6 14.5-7.9 0-15.1-2.8-20.1-8s-6.5-6.9-7-7.6a3.3 3.3 0 0 1 .1-3.7 2.7 2.7 0 0 1 2-.9 3.1 3.1 0 0 1 2.2 1l4.8 4.8a7.7 7.7 0 0 0 7 2 6.3 6.3 0 0 0 4.9-4.2 9.3 9.3 0 0 0-1.3-8.2 8 8 0 0 0-6.1-3.1 6.3 6.3 0 0 0-4.8 1.8l-.6.5a3.9 3.9 0 0 1-2.7.4 2.9 2.9 0 0 1-1.7-.8 3.7 3.7 0 0 1 .2-4.2 13.1 13.1 0 0 1 5.1-3.6 10.8 10.8 0 0 1 7-.9 11.2 11.2 0 0 1 5.9 3.2 1.6 1.6 0 0 0 1.7.5 1.7 1.7 0 0 0 1.1-1.5l1.1-21.4a3 3 0 0 1 .9-1.9 2.4 2.4 0 0 1 1.9-.6 2.6 2.6 0 0 1 2.4 2.7l-1.2 22.3a1.6 1.6 0 1 0 3.2.1l.8-15.7c.1-1.6 2-2 2.6-2a2.3 2.3 0 0 1 2.3 2.9l-1.4 18.2a1.8 1.8 0 0 0 1.6 1.8h.1a1.6 1.6 0 0 0 1.7-1.5l.7-9.4c.1-1.8 2-1.8 2.5-1.8h.1a2.2 2.2 0 0 1 1.5.7 2.5 2.5 0 0 1 .5 1.8zM14.9 43l-4.7-4.7-.5-.4a6.6 6.6 0 0 0 4.1-1.1l.6-.5c1.2-.9 1.5-1.2 2.6-1.1a4.8 4.8 0 0 1 4 1.8 6.3 6.3 0 0 1 .6 5.1 3.2 3.2 0 0 1-2.6 2.1h-.1a4.4 4.4 0 0 1-4-1.2z" _fill="#56aeff"></path></svg>